<svg width="24" height="24" viewBox="0 0 24 24" fill="none" xmlns="http://www.w3.org/2000/svg">
<g filter="url(#filter0_d_1602_106)">
<path d="M4.5 0.5H19.5V15.5H4.5V0.5Z" stroke="black"/>
<path d="M17.5 7V4" stroke="black" stroke-linecap="round" stroke-linejoin="round"/>
<path d="M19 5.5H16" stroke="black" stroke-linecap="round" stroke-linejoin="round"/>
<path d="M14.5 1.5V3.5" stroke="black" stroke-linecap="round" stroke-linejoin="round"/>
<path d="M15.5 2.5H13.5" stroke="black" stroke-linecap="round" stroke-linejoin="round"/>
<path d="M17.5436 9.53755C16.562 9.81283 15.5247 9.82185 14.5384 9.56369C13.5521 9.30553 12.6523 8.78949 11.9314 8.06857C11.2105 7.34765 10.6944 6.44783 10.4363 5.46152C10.1781 4.47522 10.1871 3.43797 10.4624 2.4563C9.49456 2.72568 8.61419 3.24394 7.90898 3.95944C7.20377 4.67495 6.69833 5.56274 6.44301 6.53438C6.18769 7.50602 6.19139 8.52759 6.45375 9.49736C6.71611 10.4671 7.22797 11.3512 7.93835 12.0616C8.64872 12.772 9.53282 13.2838 10.5026 13.5462C11.4723 13.8086 12.4939 13.8123 13.4656 13.5569C14.4372 13.3016 15.325 12.7962 16.0405 12.091C16.756 11.3858 17.2743 10.5054 17.5436 9.53755Z" stroke="black" stroke-linecap="round" stroke-linejoin="round"/>
</g>
<defs>
<filter id="filter0_d_1602_106" x="0" y="0" width="24" height="24" filterUnits="userSpaceOnUse" color-interpolation-filters="sRGB">
<feFlood flood-opacity="0" result="BackgroundImageFix"/>
<feColorMatrix in="SourceAlpha" type="matrix" values="0 0 0 0 0 0 0 0 0 0 0 0 0 0 0 0 0 0 127 0" result="hardAlpha"/>
<feOffset dy="4"/>
<feGaussianBlur stdDeviation="2"/>
<feComposite in2="hardAlpha" operator="out"/>
<feColorMatrix type="matrix" values="0 0 0 0 0 0 0 0 0 0 0 0 0 0 0 0 0 0 0.25 0"/>
<feBlend mode="normal" in2="BackgroundImageFix" result="effect1_dropShadow_1602_106"/>
<feBlend mode="normal" in="SourceGraphic" in2="effect1_dropShadow_1602_106" result="shape"/>
</filter>
</defs>
</svg>
